<svg xmlns="http://www.w3.org/2000/svg" viewBox="0 0 735 685" width="735" height="685" xmlns:c2pa="http://c2pa.org/manifest"><metadata><c2pa:manifest>AAAWgmp1bWIAAAAeanVtZGMycGEAEQAQgAAAqgA4m3EDYzJwYQAAABZcanVtYgAAAEdqdW1kYzJtYQARABCAAACqADibcQN1cm46YzJwYTplMzI0ZDliNC1lMzkzLTQ0MWYtOGZmOS02ZjlhYmU4YjQ1YmMAAAADl2p1bWIAAAApanVtZGMyYXMAEQAQgAAAqgA4m3EDYzJwYS5hc3NlcnRpb25zAAAAALxqdW1iAAAARGp1bWRjYm9yABEAEIAAAKoAOJtxE2MycGEuaW5ncmVkaWVudC52MwAAAAAYYzJzaDuy8yjo6QIyl5AIwWgzQW8AAABwY2JvcqNpZGM6Zm9ybWF0bWltYWdlL3N2Zyt4bWxqaW5zdGFuY2VJRHgseG1wOmlpZDpmY2EyN2VhMC1hMjllLTRlOTctOTA1MS1hYzA0MGZjZjlkM2ZscmVsYXRpb25zaGlwaHBhcmVudE9mAAAB4mp1bWIAAABBanVtZGNib3IAEQAQgAAAqgA4m3ETYzJwYS5hY3Rpb25zLnYyAAAAABhjMnNo3b4tUdZ1BvampOmLLNA+8wAAAZljYm9yomdhY3Rpb25zgqJmYWN0aW9ua2MycGEub3BlbmVkanBhcmFtZXRlcnOha2luZ3JlZGllbnRzgaJjdXJseC1zZWxmI2p1bWJmPWMycGEuYXNzZXJ0aW9ucy9jMnBhLmluZ3JlZGllbnQudjNkaGFzaFggr6P/rBlsiHBUyWTu1C7IAvRxp/nj3eIog0ik/XWnXVKkZmFjdGlvbngdY29tLmFudGhyb3BpYy5jbGF1ZGUucHJvdmlkZWRqcGFyYW1ldGVyc6F4H2NvbS5hbnRocm9waWMub3JpZ2luLWNvbmZpZGVuY2VndW5rbm93bmtkZXNjcmlwdGlvbnhmQ2xhdWRlIHByb3ZpZGVkIHRoaXMgZmlsZSBhdCB0aGUgcmVxdWVzdCBvZiBhIHVzZXIgYW5kIG1heSBoYXZlIGNyZWF0ZWQgb3IgbW9kaWZpZWQgdGhlIGZpbGUgY29udGVudHMubXNvZnR3YXJlQWdlbnShZG5hbWVmQ2xhdWRlcmFsbEFjdGlvbnNJbmNsdWRlZPUAAADIanVtYgAAAEBqdW1kY2JvcgARABCAAACqADibcRNjMnBhLmhhc2guZGF0YQAAAAAYYzJzaHOjP5sXp7EoGhmemwIVowMAAACAY2JvcqVjYWxnZnNoYTI1NmNwYWRNAAAAAAAAAAAAAAAAAGRoYXNoWCBf1mJJk5rm9iEuDWm2vZeVf96Ng9hxX6ZKtzDGY9T7GGRuYW1lbmp1bWJmIG1hbmlmZXN0amV4Y2x1c2lvbnOBomVzdGFydBiWZmxlbmd0aBkeBAAAAj5qdW1iAAAAJ2p1bWRjMmNsABEAEIAAAKoAOJtxA2MycGEuY2xhaW0udjIAAAACD2Nib3KlY2FsZ2ZzaGEyNTZpc2lnbmF0dXJleE1zZWxmI2p1bWJmPS9jMnBhL3VybjpjMnBhOmUzMjRkOWI0LWUzOTMtNDQxZi04ZmY5LTZmOWFiZThiNDViYy9jMnBhLnNpZ25hdHVyZWppbnN0YW5jZUlEeCx4bXA6aWlkOmQxZWQwNGY5LWQ4NjItNGVmOC05ZWM1LTU2ZmFlNjE5MWI2ZHJjcmVhdGVkX2Fzc2VydGlvbnODomN1cmx4LXNlbGYjanVtYmY9YzJwYS5hc3NlcnRpb25zL2MycGEuaW5ncmVkaWVudC52M2RoYXNoWCCvo/+sGWyIcFTJZO7ULsgC9HGn+ePd4iiDSKT9daddUqJjdXJseCpzZWxmI2p1bWJmPWMycGEuYXNzZXJ0aW9ucy9jMnBhLmFjdGlvbnMudjJkaGFzaFggpwgWOGIlBVQCxkL+nF/nrWucdCtGm7wFlE9ODdvmiMuiY3VybHgpc2VsZiNqdW1iZj1jMnBhLmFzc2VydGlvbnMvYzJwYS5oYXNoLmRhdGFkaGFzaFggDW53FB4HZA9/2+vSTs6ZhSjm8nBuKMZTDepMGWCRC5F0Y2xhaW1fZ2VuZXJhdG9yX2luZm+jZG5hbWVvQW50aHJvcGljIEZpbGVzZ3ZlcnNpb25lMS4wLjBrc3BlY1ZlcnNpb25lMi40LjAAABA4anVtYgAAAChqdW1kYzJjcwARABCAAACqADibcQNjMnBhLnNpZ25hdHVyZQAAABAIY2JvctKEWQISogEmGCFZAgowggIGMIIBjaADAgECAhRA5aAK7sI50L64g/oGQgU9Z1UTADAKBggqhkjOPQQDAzBJMRcwFQYDVQQKEw5BbnRocm9waWMsIFBCQzEuMCwGA1UEAxMlQW50aHJvcGljIENvbnRlbnQgQ3JlZGVudGlhbHMgUm9vdCBDQTAeFw0yNjA4MDcxODQzNTZaFw0yODA4MDYxOTQzNTZaMEQxFzAVBgNVBAoTDkFudGhyb3BpYywgUEJDMSkwJwYDVQQDEyBBbnRocm9waWMgQ2xhdWRlIENvbnRlbnQgU2lnbmluZzBZMBMGByqGSM49AgEGCCqGSM49AwEHA0IABJh6CmvLUBgFFNU0vUKlOVtE6djd17L5SuwX0LemFisBM3dkd/3cyjxFA3Qo5S46fX0/ihY0VZ7mfb9KF703t5OjWDBWMA4GA1UdDwEB/wQEAwIHgDAVBgNVHSUEDjAMBgorBgEEAYPoXgIBMAwGA1UdEwEB/wQCMAAwHwYDVR0jBBgwFoAUzlHiBIFOZFsj+OPEz5o+nMHXXMIwCgYIKoZIzj0EAwMDZwAwZAIwMXMdFJ4BetLLVY7ORuE9noqbbAZOZn/aArXyTwFAZfKrPzxF2vPoJNf1+UCdg1XGAjBwX1zd9WGqYkqmL5SFqw1QySjr1zJfpJM9+1rdDwSPLMOPOjKuiXjoU/pUUeG9RwmhY3BhZFkNngAAAAAAAAAAAAAAAAAAAAAAAAAAAAAAAAAAAAAAAAAAAAAAAAAAAAAAAAAAAAAAAAAAAAAAAAAAAAAAAAAAAAAAAAAAAAAAAAAAAAAAAAAAAAAAAAAAAAAAAAAAAAAAAAAAAAAAAAAAAAAAAAAAAAAAAAAAAAAAAAAAAAAAAAAAAAAAAAAAAAAAAAAAAAAAAAAAAAAAAAAAAAAAAAAAAAAAAAAAAAAAAAAAAAAAAAAAAAAAAAAAAAAAAAAAAAAAAAAAAAAAAAAAAAAAAAAAAAAAAAAAAAAAAAAAAAAAAAAAAAAAAAAAAAAAAAAAAAAAAAAAAAAAAAAAAAAAAAAAAAAAAAAAAAAAAAAAAAAAAAAAAAAAAAAAAAAAAAAAAAAAAAAAAAAAAAAAAAAAAAAAAAAAAAAAAAAAAAAAAAAAAAAAAAAAAAAAAAAAAAAAAAAAAAAAAAAAAAAAAAAAAAAAAAAAAAAAAAAAAAAAAAAAAAAAAAAAAAAAAAAAAAAAAAAAAAAAAAAAAAAAAAAAAAAAAAAAAAAAAAAAAAAAAAAAAAAAAAAAAAAAAAAAAAAAAAAAAAAAAAAAAAAAAAAAAAAAAAAAAAAAAAAAAAAAAAAAAAAAAAAAAAAAAAAAAAAAAAAAAAAAAAAAAAAAAAAAAAAAAAAAAAAAAAAAAAAAAAAAAAAAAAAAAAAAAAAAAAAAAAAAAAAAAAAAAAAAAAAAAAAAAAAAAAAAAAAAAAAAAAAAAAAAAAAAAAAAAAAAAAAAAAAAAAAAAAAAAAAAAAAAAAAAAAAAAAAAAAAAAAAAAAAAAAAAAAAAAAAAAAAAAAAAAAAAAAAAAAAAAAAAAAAAAAAAAAAAAAAAAAAAAAAAAAAAAAAAAAAAAAAAAAAAAAAAAAAAAAAAAAAAAAAAAAAAAAAAAAAAAAAAAAAAAAAAAAAAAAAAAAAAAAAAAAAAAAAAAAAAAAAAAAAAAAAAAAAAAAAAAAAAAAAAAAAAAAAAAAAAAAAAAAAAAAAAAAAAAAAAAAAAAAAAAAAAAAAAAAAAAAAAAAAAAAAAAAAAAAAAAAAAAAAAAAAAAAAAAAAAAAAAAAAAAAAAAAAAAAAAAAAAAAAAAAAAAAAAAAAAAAAAAAAAAAAAAAAAAAAAAAAAAAAAAAAAAAAAAAAAAAAAAAAAAAAAAAAAAAAAAAAAAAAAAAAAAAAAAAAAAAAAAAAAAAAAAAAAAAAAAAAAAAAAAAAAAAAAAAAAAAAAAAAAAAAAAAAAAAAAAAAAAAAAAAAAAAAAAAAAAAAAAAAAAAAAAAAAAAAAAAAAAAAAAAAAAAAAAAAAAAAAAAAAAAAAAAAAAAAAAAAAAAAAAAAAAAAAAAAAAAAAAAAAAAAAAAAAAAAAAAAAAAAAAAAAAAAAAAAAAAAAAAAAAAAAAAAAAAAAAAAAAAAAAAAAAAAAAAAAAAAAAAAAAAAAAAAAAAAAAAAAAAAAAAAAAAAAAAAAAAAAAAAAAAAAAAAAAAAAAAAAAAAAAAAAAAAAAAAAAAAAAAAAAAAAAAAAAAAAAAAAAAAAAAAAAAAAAAAAAAAAAAAAAAAAAAAAAAAAAAAAAAAAAAAAAAAAAAAAAAAAAAAAAAAAAAAAAAAAAAAAAAAAAAAAAAAAAAAAAAAAAAAAAAAAAAAAAAAAAAAAAAAAAAAAAAAAAAAAAAAAAAAAAAAAAAAAAAAAAAAAAAAAAAAAAAAAAAAAAAAAAAAAAAAAAAAAAAAAAAAAAAAAAAAAAAAAAAAAAAAAAAAAAAAAAAAAAAAAAAAAAAAAAAAAAAAAAAAAAAAAAAAAAAAAAAAAAAAAAAAAAAAAAAAAAAAAAAAAAAAAAAAAAAAAAAAAAAAAAAAAAAAAAAAAAAAAAAAAAAAAAAAAAAAAAAAAAAAAAAAAAAAAAAAAAAAAAAAAAAAAAAAAAAAAAAAAAAAAAAAAAAAAAAAAAAAAAAAAAAAAAAAAAAAAAAAAAAAAAAAAAAAAAAAAAAAAAAAAAAAAAAAAAAAAAAAAAAAAAAAAAAAAAAAAAAAAAAAAAAAAAAAAAAAAAAAAAAAAAAAAAAAAAAAAAAAAAAAAAAAAAAAAAAAAAAAAAAAAAAAAAAAAAAAAAAAAAAAAAAAAAAAAAAAAAAAAAAAAAAAAAAAAAAAAAAAAAAAAAAAAAAAAAAAAAAAAAAAAAAAAAAAAAAAAAAAAAAAAAAAAAAAAAAAAAAAAAAAAAAAAAAAAAAAAAAAAAAAAAAAAAAAAAAAAAAAAAAAAAAAAAAAAAAAAAAAAAAAAAAAAAAAAAAAAAAAAAAAAAAAAAAAAAAAAAAAAAAAAAAAAAAAAAAAAAAAAAAAAAAAAAAAAAAAAAAAAAAAAAAAAAAAAAAAAAAAAAAAAAAAAAAAAAAAAAAAAAAAAAAAAAAAAAAAAAAAAAAAAAAAAAAAAAAAAAAAAAAAAAAAAAAAAAAAAAAAAAAAAAAAAAAAAAAAAAAAAAAAAAAAAAAAAAAAAAAAAAAAAAAAAAAAAAAAAAAAAAAAAAAAAAAAAAAAAAAAAAAAAAAAAAAAAAAAAAAAAAAAAAAAAAAAAAAAAAAAAAAAAAAAAAAAAAAAAAAAAAAAAAAAAAAAAAAAAAAAAAAAAAAAAAAAAAAAAAAAAAAAAAAAAAAAAAAAAAAAAAAAAAAAAAAAAAAAAAAAAAAAAAAAAAAAAAAAAAAAAAAAAAAAAAAAAAAAAAAAAAAAAAAAAAAAAAAAAAAAAAAAAAAAAAAAAAAAAAAAAAAAAAAAAAAAAAAAAAAAAAAAAAAAAAAAAAAAAAAAAAAAAAAAAAAAAAAAAAAAAAAAAAAAAAAAAAAAAAAAAAAAAAAAAAAAAAAAAAAAAAAAAAAAAAAAAAAAAAAAAAAAAAAAAAAAAAAAAAAAAAAAAAAAAAAAAAAAAAAAAAAAAAAAAAAAAAAAAAAAAAAAAAAAAAAAAAAAAAAAAAAAAAAAAAAAAAAAAAAAAAAAAAAAAAAAAAAAAAAAAAAAAAAAAAAAAAAAAAAAAAAAAAAAAAAAAAAAAAAAAAAAAAAAAAAAAAAAAAAAAAAAAAAAAAAAAAAAAAAAAAAAAAAAAAAAAAAAAAAAAAAAAAAAAAAAAAAAAAAAAAAAAAAAAAAAAAAAAAAAAAAAAAAAAAAAAAAAAAAAAAAAAAAAAAAAAAAAAAAAAAAAAAAAAAAAAAAAAAAAAAAAAAAAAAAAAAAAAAAAAAAAAAAAAAAAAAAAAAAAAAAAAAAAAAAAAAAAAAAAAAAAAAAAAAAAAAAAAAAAAAAAAAAAAAAAAAAAAAAAAAAAAAAAAAAAAAAAAAAAAAAAAAAAAAAAAAAAAAAAAAAAAAAAAAAAAAAAAAAAAAAAAAAAAAAAAAAAAAAAAAAAAAAAAAAAAAAAAAAAAAAAAAAAAAAAAAAAAAAAAAAAAAAAAAAAAAAAAAAAAAAAAAAAAAAAAAAAAAAAAAAAAAAAAAAAAAAAAAAAAAAAAAAAAAAAAAAAAAAAAAAAAAAAAAAAAAAAAAAAAAAAAAAAAAAAAAAAAAAAAAAAAAAAAAAAAAAAAAAAAAAAAAAAAAAAAAAAAAAAAAAAAAAAAAAAAAAAAAAAAAAAAAAAAAAAAAAAAAAAAAAAAAAAAAAAAAAAAAAAAAAAAAAAAAAAAAAAAAAAAAAAAAAAAAAAAAAAAAAAAAAAAAAAAAAAAAAAAAAAAAAAAAAAAAAAAAAAAAAAAAAAAAAAAAAAAAAAAAAAAAAAAAAAAAAAAAAAAAAAAAAAAAAAAAAAAAAAAAAAAAAAAAAAAAAAAAAAAAAAAAAAAAAAAAAAAAAAAAAAAAAAAAAAAAAAAAAAAAAAAAAAAAAAAAAAAAAAAAAAAAAAAAAAAAAAAAAAAAAAAAAAAAAAAAAAAAAAAAAAAAAAAAAAAAAAAAAAAAAAAAAAAAAAAAAAAAAAAAAAAAAAAAAAAAAAAAAAAAAAAAAAAAAAAAAAAAAAAAAAAAAAAAAAAAAAAAAAAAAAAAAAAAAAAAAAAAAAAAAAAAAAAAAAAAAAAAAAAAAAAAAAAAAAAAAAAAAAAAAAAAAAAAAAAAAAAAAAAAAAAAAAAAAAAAAAAAAAAAAAAAAAAAAAAAAAAAAAAAAAAAAAAAAAAAAAAAAAAAAAAAAAAAAAAAAAAAAAAAAAAAAAAAAAAAAAAAAAAAAAAAAAAAAAAAAAAAAAAAAAAAAAAAAAAAAAAAAAAAAAAAAAAAAAAAAAAAAAAAAAAAAAAAAAAAAAAAAAAAAAAAAAAAAAAAAAAAAAAAAAAAAAAAAAAAAAAAAAAAAAAAAAAAAAAAAAAAAAAAAAAAAAAAAAAAAAAAAAAAAAAAAAAAAAAAAAAAAAAAAAAAAAAAAAAAAAAAAAAAAAAAAAAAAAAAAAAAAAAAAAAAAAAAAAAAAAAAAAAAAAAAAAAAAAAAAAAAAAAAAAAAAAAAAAAAAAAAAAAAAAAAAAAAAAAAAAAAAAAAAAAAAAAAAAAAAAAAAAAAAAAAAAAAAAAAAAAAAAAAAAAAAAAAAAAAAAAAAAAAAAAAAAAAAAAAAAAAAAAAAAAAAAAAAAAAAAAAAAAAAAAAAAAAAAAAAAAAAAAAAAAAAAAAAAAAAAAAAAAAAAAAAAAAAAAAAAAAAAAAAAAAAAAAAAAAAAAAPZYQIsICvd24XdZrZq/K7SZqHMucN7lBbcKC7nkNAkBPPh25tOKnelYwd66FlB+AU8M9SwlkAIDfmYlAYd8GJL/moE=</c2pa:manifest></metadata><defs>
<linearGradient id="bronze" x1="0" y1="0" x2="1" y2="1">
  <stop offset="0" stop-color="#C9A97E"/><stop offset=".45" stop-color="#8E6F4B"/><stop offset="1" stop-color="#5E4630"/>
</linearGradient>
<linearGradient id="bronzeDark" x1="0" y1="0" x2="1" y2="1">
  <stop offset="0" stop-color="#E2C89E"/><stop offset=".5" stop-color="#B8976A"/><stop offset="1" stop-color="#8A6C48"/>
</linearGradient>
</defs><rect width="735" height="685" fill="#1A1917"/><g transform="translate(210,10) scale(0.25)"><g transform="translate(0.000000,1640.000000) scale(0.100000,-0.100000)"><path fill="url(#bronzeDark)" d="M3873 15150 c-1200 -4 -1645 -8 -1653 -16 -17 -17 -24 -88 -11 -113
12 -21 16 -21 304 -22 404 0 486 -13 639 -98 162 -89 253 -232 304 -476 29
-140 29 -140 31 -2590 1 -1347 2 -2528 3 -2624 0 -174 0 -174 82 -253 71 -69
127 -111 318 -238 101 -67 229 -141 367 -211 84 -42 162 -84 175 -93 27 -19
67 -21 73 -3 2 6 6 134 8 282 1 149 6 275 9 281 5 7 260 13 842 17 623 5 885
10 1033 22 282 23 657 73 788 107 22 5 69 15 105 22 36 7 74 17 85 23 11 6 40
14 65 18 24 4 116 32 203 61 87 30 164 54 171 54 8 0 38 11 67 24 30 12 83 35
119 50 36 15 97 42 135 61 39 18 97 45 130 60 90 40 222 110 285 149 388 245
618 435 887 732 98 109 220 267 283 369 17 28 44 70 60 95 16 25 42 71 59 102
17 31 35 65 40 75 60 106 186 430 211 543 4 19 17 69 28 110 23 84 45 207 64
355 16 125 16 496 -1 625 -56 442 -184 800 -405 1135 -47 72 -103 150 -124
175 -22 25 -58 68 -80 95 -102 127 -365 365 -488 440 -17 11 -57 37 -89 58
-141 94 -360 212 -500 269 -223 91 -260 103 -475 161 -241 64 -577 122 -890
154 -206 20 -620 22 -3257 13z m2772 -165 c203 -18 555 -94 740 -159 131 -46
162 -58 275 -113 93 -46 134 -71 331 -199 87 -56 310 -254 349 -309 8 -11 23
-29 32 -40 80 -95 132 -161 175 -225 61 -89 157 -257 168 -291 4 -13 25 -58
46 -99 22 -41 39 -79 39 -84 0 -5 14 -39 31 -75 37 -78 78 -190 90 -246 4 -22
19 -83 33 -135 132 -494 126 -1308 -14 -1775 -10 -33 -22 -78 -26 -100 -3 -22
-15 -57 -25 -77 -11 -21 -19 -45 -19 -56 0 -20 -111 -317 -134 -360 -8 -15
-27 -52 -41 -82 -47 -102 -76 -152 -164 -285 -158 -239 -432 -521 -641 -658
-30 -20 -73 -50 -95 -66 -22 -16 -52 -36 -65 -43 -14 -8 -47 -28 -73 -45 -55
-36 -210 -102 -307 -131 -131 -40 -177 -52 -196 -52 -11 0 -25 -5 -31 -11 -6
-6 -60 -20 -119 -30 -60 -11 -158 -29 -219 -40 -145 -26 -239 -35 -540 -51
-325 -17 -1714 -16 -1724 1 -4 6 -8 1316 -9 2910 -1 2446 0 2902 12 2914 11
11 87 14 387 16 206 1 376 4 378 7 2 2 275 4 605 4 427 -1 645 -5 751 -15z
m2490 -2066 c4 -12 2 -26 -4 -32 -6 -6 -11 -20 -11 -31 0 -13 -3 -16 -9 -10
-11 10 -2 94 10 94 4 0 11 -9 14 -21z m28 -314 c4 -77 3 -133 -2 -138 -11 -11
-17 33 -27 177 -5 80 -4 98 7 94 10 -3 16 -39 22 -133z m26 -273 c7 -16 16
-125 20 -253 9 -212 8 -225 -10 -239 -20 -16 -29 -68 -49 -267 -6 -62 -18
-136 -26 -165 -7 -29 -14 -65 -14 -80 0 -19 -5 -28 -16 -28 -12 0 -15 6 -10
23 3 12 10 67 16 122 6 55 18 138 25 185 8 47 17 146 20 220 9 228 15 423 15
468 0 48 12 55 29 14z m40 -584 c0 -29 -4 -73 -8 -98 -7 -38 -9 -30 -10 53 -1
59 3 97 9 97 6 0 10 -24 9 -52z M8106 12525 c-13 -20 -18 -58 -22 -163 -4
-116 -8 -141 -24 -162 -11 -14 -29 -41 -40 -62 -37 -68 -116 -77 -300 -34
-306 71 -405 92 -510 105 -36 5 -117 16 -180 24 -185 25 -286 36 -430 47 -166
12 -681 12 -810 0 -52 -4 -149 -13 -215 -19 -130 -12 -367 -50 -510 -82 -82
-18 -152 -37 -275 -73 -25 -8 -63 -19 -86 -25 -37 -10 -41 -14 -53 -59 -23
-90 22 -132 86 -82 14 11 36 20 48 20 13 0 47 8 77 19 111 39 288 85 373 96
28 4 77 13 110 21 152 34 687 51 975 30 210 -14 523 -75 675 -131 39 -15 86
-31 105 -36 69 -21 307 -135 390 -188 74 -47 210 -152 210 -163 0 -5 9 -12 19
-16 34 -13 197 -225 243 -317 31 -61 72 -192 80 -255 23 -182 27 -228 27 -383
1 -93 6 -177 11 -187 14 -26 71 -35 107 -18 29 14 30 18 18 98 -16 113 -24
1481 -11 1860 2 69 -1 104 -11 128 -19 40 -53 43 -77 7z M3293 11241 c-130
-142 -182 -199 -204 -220 -22 -22 -147 -183 -202 -261 -57 -81 -68 -97 -80
-114 -6 -10 -20 -29 -30 -41 -9 -13 -34 -57 -55 -98 -21 -41 -48 -87 -60 -102
-12 -15 -22 -34 -22 -42 0 -7 -9 -32 -20 -54 -18 -35 -54 -125 -96 -241 -107
-294 -134 -788 -57 -1043 64 -215 96 -303 143 -395 100 -198 158 -285 305
-460 125 -148 376 -377 480 -440 22 -13 76 -49 120 -81 147 -104 404 -249 698
-393 379 -186 374 -183 583 -266 168 -66 220 -87 319 -131 22 -9 72 -29 110
-43 77 -30 148 -58 213 -87 23 -10 47 -19 54 -19 6 0 36 -11 67 -24 113 -47
311 -127 526 -211 121 -47 249 -99 285 -114 36 -16 121 -52 190 -81 69 -28
139 -57 155 -64 17 -8 91 -40 165 -71 74 -32 144 -64 155 -71 11 -8 26 -14 33
-14 33 0 404 -195 656 -345 62 -37 224 -151 391 -274 112 -83 299 -275 411
-421 196 -257 335 -557 407 -875 34 -150 57 -363 57 -530 0 -298 -72 -662
-183 -930 -31 -74 -135 -274 -157 -303 -11 -14 -20 -30 -20 -37 0 -6 -15 -29
-34 -51 -18 -21 -41 -52 -50 -69 -22 -40 -44 -69 -152 -200 -77 -92 -154 -171
-300 -305 -70 -66 -331 -229 -479 -302 -145 -72 -365 -164 -412 -173 -18 -4
-35 -11 -38 -16 -4 -5 -24 -9 -46 -9 -25 0 -53 -9 -77 -24 -22 -14 -60 -26
-95 -30 -32 -4 -75 -13 -95 -21 -26 -12 -89 -17 -241 -20 -113 -3 -280 -9
-371 -14 -226 -13 -694 4 -806 29 -27 6 -92 18 -144 25 -117 17 -246 40 -325
59 -33 8 -105 24 -160 36 -110 23 -245 62 -317 91 -26 11 -57 19 -70 19 -13 0
-33 7 -45 15 -12 9 -41 19 -65 24 -50 11 -125 36 -152 52 -11 6 -42 19 -70 29
-52 19 -280 118 -379 165 -30 14 -58 25 -63 25 -11 0 -101 47 -232 119 -51 28
-95 51 -98 51 -2 0 -33 18 -68 40 -35 22 -66 40 -70 40 -3 0 -42 21 -86 47
-44 27 -95 57 -114 68 -19 11 -63 37 -98 57 -34 21 -88 56 -118 78 -30 22 -68
47 -85 56 -16 9 -48 31 -70 48 -22 18 -96 70 -165 116 -69 46 -143 98 -165
115 -22 18 -51 38 -65 45 -14 7 -56 38 -95 69 -38 31 -84 65 -101 76 -18 11
-53 38 -79 60 -113 97 -132 113 -161 130 -31 18 -33 18 -65 -1 -54 -31 -49
-54 23 -116 35 -30 73 -60 84 -68 12 -8 64 -50 115 -93 121 -101 177 -144 240
-187 28 -19 78 -57 112 -84 34 -26 87 -64 117 -85 30 -20 92 -63 137 -96 75
-55 197 -135 378 -249 39 -25 81 -52 94 -62 13 -9 49 -30 80 -47 31 -16 79
-45 107 -63 28 -19 54 -34 57 -34 3 0 29 -14 57 -30 61 -36 340 -177 425 -215
33 -15 83 -37 110 -49 49 -22 112 -49 210 -89 28 -11 68 -28 90 -38 22 -10 76
-29 120 -43 44 -14 114 -37 155 -52 96 -33 232 -73 290 -83 25 -5 97 -22 160
-38 106 -28 195 -48 325 -73 163 -31 373 -51 635 -59 498 -15 866 13 1295 100
242 50 619 176 830 279 88 43 142 73 368 205 131 76 156 94 336 236 258 206
485 457 699 775 64 95 125 202 168 294 56 119 164 380 164 394 0 8 7 30 15 48
14 30 54 181 77 288 27 126 48 303 59 484 11 181 11 219 -6 371 -15 144 -49
347 -85 510 -47 213 -211 567 -355 767 -58 81 -162 206 -214 259 -14 14 -55
57 -91 95 -36 38 -97 96 -135 129 -39 33 -79 68 -90 78 -53 46 -105 86 -155
120 -30 20 -74 50 -97 67 -24 16 -56 36 -73 45 -16 8 -37 24 -47 34 -10 10
-29 22 -43 26 -14 4 -33 14 -42 22 -28 25 -149 101 -203 128 -27 14 -75 40
-105 58 -30 18 -72 38 -92 45 -20 7 -68 30 -106 51 -39 21 -85 43 -103 50 -18
6 -40 18 -48 25 -16 15 -36 23 -201 80 -88 31 -100 33 -165 25 -142 -17 -185
-37 -185 -86 0 -21 27 -44 58 -49 41 -7 25 -26 -22 -27 -25 -1 -36 -6 -36 -16
0 -9 -6 -28 -14 -42 -8 -16 -16 -80 -20 -165 -5 -88 -13 -151 -22 -171 -16
-36 -11 -87 12 -132 8 -14 14 -40 14 -58 0 -17 5 -35 10 -38 19 -11 10 -35
-15 -41 -30 -8 -23 -24 11 -24 15 0 24 -6 24 -16 0 -8 14 -20 30 -25 17 -6 30
-17 30 -25 0 -19 -44 -18 -60 1 -7 8 -21 15 -31 15 -10 0 -85 32 -166 71 -210
101 -218 105 -317 144 -49 20 -102 47 -118 60 -16 14 -34 25 -40 25 -16 0 13
31 37 40 15 6 24 1 37 -21 10 -16 26 -29 37 -29 10 0 30 -9 44 -20 14 -11 39
-20 56 -20 35 0 42 15 11 25 -11 3 -26 12 -33 18 -56 51 -70 61 -89 62 -22 2
-23 5 -20 76 2 40 7 76 11 79 5 3 12 37 15 75 6 51 13 74 26 85 16 13 20 35
26 148 4 72 11 132 15 132 5 0 9 7 9 15 0 8 -4 15 -10 15 -18 0 -11 35 10 48
39 24 17 56 -70 101 -25 13 -57 35 -71 48 -15 14 -56 39 -93 58 -36 18 -81 45
-99 60 -43 36 -152 105 -164 105 -6 0 -21 8 -34 19 -13 10 -71 37 -129 61 -58
23 -110 46 -115 50 -6 5 -28 15 -50 23 -180 65 -245 91 -273 108 -18 10 -39
19 -47 19 -7 0 -40 13 -72 29 -33 17 -89 41 -124 55 -35 14 -113 46 -174 71
-60 26 -128 53 -150 60 -22 7 -56 20 -75 28 -19 8 -78 33 -130 55 -52 22 -123
52 -156 66 -34 14 -66 26 -71 26 -5 0 -47 16 -93 36 -47 19 -98 40 -115 46
-16 6 -42 20 -57 30 -15 10 -42 24 -60 30 -18 6 -42 19 -53 28 -11 10 -31 21
-45 25 -14 4 -36 16 -49 26 -13 11 -32 19 -41 19 -10 0 -24 7 -31 16 -7 9 -36
27 -64 40 -69 32 -232 129 -272 162 -19 15 -54 41 -78 58 -24 17 -68 53 -97
82 -29 28 -59 57 -67 64 -112 109 -187 191 -203 223 -11 22 -26 47 -33 55 -22
27 -135 257 -166 336 -36 96 -80 370 -82 514 -1 122 24 345 48 420 8 25 22 79
31 120 18 83 41 159 53 175 5 5 14 27 21 48 7 22 27 66 46 99 19 33 34 64 34
69 0 4 29 51 65 104 60 88 65 99 65 149 0 45 -4 58 -22 70 -29 20 -34 20 -55
-3z M3501 7487 c-8 -10 -11 -472 -12 -1677 0 -1370 -3 -1683 -15 -1774 -26
-208 -29 -219 -97 -366 -30 -63 -112 -180 -128 -180 -4 0 -21 -12 -38 -26 -94
-79 -327 -126 -634 -128 -155 -1 -170 -3 -183 -20 -19 -27 -18 -60 5 -80 17
-16 123 -17 1512 -15 822 1 1505 -2 1519 -5 36 -10 80 26 80 63 0 24 -7 31
-45 46 -25 9 -53 14 -63 10 -9 -4 -65 -9 -124 -11 -117 -4 -349 30 -407 60
-111 58 -240 192 -256 267 -4 19 -13 44 -21 55 -27 43 -63 220 -73 354 -5 74
-10 567 -10 1095 -1 528 -4 1034 -7 1125 -3 91 -2 262 3 380 4 118 6 241 5
273 -4 53 -6 57 -30 62 -15 3 -44 15 -64 25 -20 11 -45 20 -55 20 -10 0 -29 7
-43 15 -14 8 -50 26 -80 40 -171 80 -139 63 -316 164 -78 45 -145 81 -149 81
-5 0 -23 11 -41 25 -18 14 -36 25 -40 25 -4 0 -22 11 -40 25 -18 14 -36 25
-40 25 -3 0 -22 14 -41 30 -37 33 -55 37 -72 17z M7040 6420 c0 -5 9 -10 20
-10 11 0 20 5 20 10 0 6 -9 10 -20 10 -11 0 -20 -4 -20 -10z M6821 6351 c-18
-12 -4 -19 48 -22 29 -2 46 1 49 9 2 6 -2 13 -10 13 -7 1 -26 3 -43 5 -16 2
-36 0 -44 -5z M6990 6301 c0 -19 38 -33 60 -21 31 16 24 26 -20 28 -22 2 -40
-2 -40 -7z M7080 6230 c0 -5 9 -10 20 -10 11 0 20 5 20 10 0 6 -9 10 -20 10
-11 0 -20 -4 -20 -10z"/></g></g><g transform="translate(10,430) scale(0.25)"><g transform="translate(0.000000,360.000000) scale(0.100000,-0.100000)"><path fill="#ECE5DB" d="M7778 3100 c-121 -30 -257 -80 -333 -124 -305 -173 -527 -462 -604
-786 -34 -142 -44 -236 -38 -358 9 -168 31 -269 102 -448 70 -177 195 -338
368 -478 111 -89 193 -132 357 -186 300 -99 561 -91 867 26 116 45 239 112
285 156 10 10 21 18 26 18 24 1 184 174 258 280 106 151 187 382 205 585 23
249 -31 501 -158 740 -48 90 -320 375 -359 375 -4 0 -32 17 -62 37 -31 20 -96
54 -146 75 -50 22 -100 44 -111 49 -11 5 -73 20 -137 34 -153 33 -397 35 -520
5z m434 -85 c160 -33 233 -63 333 -138 110 -82 239 -240 295 -361 107 -225
159 -505 136 -726 -24 -233 -32 -270 -92 -425 -118 -305 -346 -524 -619 -596
-110 -29 -335 -38 -402 -16 -26 8 -68 18 -93 22 -49 8 -186 72 -236 110 -90
69 -194 180 -242 258 -29 47 -52 93 -52 102 0 10 -6 26 -14 34 -43 51 -101
249 -127 431 -15 101 -5 351 15 415 9 28 16 69 16 92 0 68 96 322 154 408 185
271 423 400 748 404 59 1 138 -6 180 -14z M14357 3105 c-168 -32 -399 -131
-527 -225 -104 -77 -320 -325 -320 -367 0 -7 -7 -18 -15 -26 -29 -30 -89 -163
-107 -242 -11 -44 -29 -143 -40 -220 -19 -127 -20 -152 -9 -264 24 -246 91
-416 247 -626 57 -77 194 -213 264 -262 166 -116 423 -200 669 -220 74 -6 240
9 316 29 22 5 63 15 90 22 28 7 61 17 75 24 14 6 58 25 98 42 144 62 352 224
445 349 159 212 250 467 264 743 10 183 -49 428 -150 621 -55 106 -186 271
-273 342 -54 45 -187 135 -200 135 -4 0 -15 6 -23 13 -15 13 -169 74 -241 96
-123 38 -154 42 -315 46 -124 3 -191 1 -248 -10z m373 -90 c257 -44 396 -134
566 -367 39 -52 104 -172 104 -190 0 -7 6 -24 13 -38 44 -85 78 -210 97 -353
12 -93 4 -325 -15 -422 -7 -38 -17 -88 -20 -110 -13 -78 -60 -194 -131 -325
-7 -14 -19 -37 -25 -53 -6 -15 -15 -27 -20 -27 -5 0 -15 -13 -24 -29 -21 -41
-172 -199 -198 -207 -12 -4 -34 -17 -49 -29 -40 -34 -167 -84 -271 -106 -75
-17 -116 -20 -217 -16 -193 7 -311 44 -465 146 -81 53 -236 215 -270 281 -112
218 -149 335 -172 544 -16 151 -16 167 1 317 18 161 52 311 80 351 9 12 16 37
16 55 0 17 6 36 14 40 7 4 19 25 25 45 7 21 17 40 21 43 5 3 17 21 25 39 24
50 138 184 198 234 62 51 154 107 211 128 41 16 175 48 231 57 66 9 195 6 275
-8z M20600 3096 c-100 -23 -156 -40 -282 -85 -212 -77 -496 -337 -605 -556
-44 -89 -98 -264 -123 -400 -59 -319 26 -675 222 -933 231 -303 597 -482 989
-482 163 0 336 36 488 100 101 43 231 112 265 142 63 53 218 210 255 257 39
50 161 284 161 309 0 9 7 31 16 47 8 17 25 80 37 140 29 152 29 361 -1 499
-20 91 -30 123 -85 261 -25 65 -79 157 -131 224 -47 62 -220 236 -252 254 -12
7 -41 25 -65 41 -88 59 -176 99 -319 145 -125 40 -196 52 -330 56 -116 4 -150
1 -240 -19z m362 -86 c176 -34 251 -67 378 -168 78 -62 152 -144 215 -237 62
-91 148 -298 165 -393 5 -34 15 -90 21 -124 18 -97 16 -371 -3 -443 -9 -33
-19 -80 -23 -105 -19 -113 -103 -310 -186 -431 -48 -71 -187 -210 -256 -255
-52 -35 -128 -69 -231 -101 -47 -14 -91 -18 -242 -17 -185 0 -185 0 -290 36
-58 19 -127 49 -155 67 -27 17 -61 36 -75 43 -29 13 -154 151 -176 194 -9 16
-21 36 -28 44 -22 26 -66 108 -66 123 0 8 -8 25 -18 38 -33 45 -71 153 -102
294 -5 22 -12 112 -16 200 -14 351 42 587 207 865 23 37 107 141 124 151 5 4
21 16 35 28 102 86 141 108 265 151 88 30 205 51 327 58 15 1 73 -7 130 -18z
M26923 3078 c-6 -7 -25 -46 -43 -86 -18 -39 -39 -77 -46 -83 -9 -7 -14 -32
-14 -66 0 -39 -8 -69 -29 -111 -16 -32 -45 -98 -64 -148 -20 -49 -65 -159
-102 -244 -68 -160 -101 -239 -137 -325 -11 -27 -26 -63 -34 -80 -7 -16 -25
-59 -39 -95 -15 -36 -37 -87 -49 -115 -24 -52 -32 -69 -117 -275 -28 -69 -60
-144 -70 -167 -11 -23 -19 -45 -19 -48 0 -14 -76 -185 -147 -332 -40 -80 -129
-141 -209 -143 -16 0 -38 -6 -48 -13 -15 -11 -17 -17 -7 -35 6 -12 17 -22 24
-23 7 0 115 -1 242 -2 208 -2 232 0 248 16 27 27 6 57 -39 57 -46 0 -94 47
-94 92 0 32 47 178 85 263 12 28 28 66 35 85 8 19 20 44 27 55 7 11 13 25 13
32 0 7 18 52 41 100 23 49 52 112 65 141 24 52 24 52 484 52 460 0 460 0 470
-22 5 -13 32 -79 60 -148 28 -69 61 -150 74 -180 75 -173 133 -327 141 -371 6
-30 2 -41 -21 -68 -22 -26 -33 -32 -54 -27 -15 2 -32 0 -39 -7 -15 -15 -14
-52 2 -64 9 -6 543 -10 588 -4 14 2 19 33 9 52 -7 13 -21 19 -43 19 -31 0 -40
4 -103 44 -30 19 -53 59 -93 166 -12 30 -27 66 -35 80 -7 14 -19 43 -26 65 -7
22 -21 56 -31 75 -24 48 -85 186 -102 235 -38 109 -93 248 -123 314 -19 41
-34 77 -34 82 0 4 -22 54 -49 111 -27 57 -52 114 -55 128 -6 23 -40 104 -72
175 -7 17 -42 102 -78 190 -35 88 -85 205 -111 260 -61 129 -134 300 -147 345
-10 38 -32 60 -59 60 -9 0 -21 -6 -26 -12z m-19 -424 c16 -51 116 -304 172
-439 30 -71 69 -164 85 -205 17 -41 44 -104 59 -140 15 -36 31 -76 35 -90 4
-14 17 -38 28 -53 12 -17 16 -32 10 -38 -5 -5 -190 -10 -421 -11 -459 -3 -429
-8 -393 67 11 22 43 96 72 165 28 69 60 143 70 165 10 22 32 77 48 122 17 45
40 99 50 120 10 21 31 68 45 104 14 36 39 95 56 130 16 35 30 72 30 82 0 27
20 59 33 54 7 -2 16 -17 21 -33z M621 3067 c-31 -31 11 -77 70 -77 54 0 77
-14 97 -58 15 -34 17 -129 20 -1037 2 -676 0 -1012 -7 -1036 -15 -51 -40 -69
-111 -79 -67 -10 -90 -22 -90 -51 0 -30 44 -41 126 -34 124 12 325 13 426 2
107 -12 134 -4 122 37 -9 32 -34 46 -79 46 -33 0 -47 6 -71 31 -26 27 -30 39
-36 117 -3 48 -7 525 -7 1060 -1 972 -1 972 22 981 32 12 1258 14 1277 1 13
-8 15 -134 13 -1049 -2 -1030 -2 -1039 -22 -1080 -25 -48 -46 -61 -99 -61 -46
0 -86 -27 -77 -51 13 -33 47 -41 131 -30 65 8 316 7 474 -2 30 -2 35 2 38 21
5 32 -13 50 -57 58 -50 9 -88 30 -103 57 -17 29 -24 2006 -8 2066 16 62 45 91
90 91 21 0 45 3 54 6 20 8 21 48 2 63 -20 17 -2179 24 -2195 8z M4071 3063
c-27 -20 -2 -44 73 -69 38 -13 72 -27 76 -31 4 -4 14 -44 22 -88 14 -69 16
-210 17 -1025 1 -898 0 -947 -17 -993 -16 -41 -26 -52 -61 -68 -24 -10 -54
-19 -68 -19 -58 0 -81 -37 -40 -65 19 -12 34 -13 87 -4 41 6 150 8 290 4 213
-6 227 -5 243 13 16 18 16 20 -2 36 -10 9 -41 19 -69 23 -63 7 -91 34 -104
100 -11 62 -9 824 4 840 6 8 19 8 43 2 18 -5 122 -7 232 -5 240 5 313 20 493
98 48 21 52 23 96 52 102 69 191 170 236 270 49 107 71 306 44 398 -9 31 -16
64 -16 73 0 58 -107 213 -195 283 -165 131 -312 171 -650 178 -524 10 -718 9
-734 -3z m960 -113 c82 -25 135 -54 203 -113 42 -36 63 -66 105 -153 53 -107
53 -107 59 -234 7 -177 -10 -268 -75 -395 -95 -186 -323 -272 -648 -244 -71 6
-138 15 -147 21 -17 8 -18 45 -18 568 0 474 2 560 14 567 8 4 110 7 228 6 181
-2 223 -6 279 -23z M10238 3070 c-21 -13 -23 -43 -5 -58 6 -5 35 -13 62 -17
103 -15 143 -44 228 -166 69 -97 166 -243 187 -279 41 -71 236 -361 309 -460
23 -30 46 -66 53 -80 7 -14 25 -44 41 -67 29 -40 29 -43 13 -65 -9 -13 -37
-54 -63 -93 -76 -112 -134 -189 -149 -198 -8 -4 -14 -14 -14 -21 0 -8 -19 -39
-42 -70 -24 -31 -68 -93 -98 -137 -30 -45 -77 -111 -104 -147 -28 -37 -64 -87
-82 -112 -131 -180 -206 -265 -254 -290 -20 -10 -69 -25 -109 -34 -81 -16 -95
-25 -89 -52 3 -18 17 -19 228 -20 124 0 241 -4 261 -8 26 -6 38 -4 48 8 19 23
4 53 -30 60 -16 3 -41 17 -55 31 -21 21 -24 31 -18 62 3 21 18 58 32 83 37 65
233 354 356 525 36 50 74 104 86 120 133 190 152 215 170 215 11 0 20 -6 20
-14 0 -8 10 -27 23 -43 13 -15 65 -93 116 -173 51 -80 110 -170 132 -200 72
-100 230 -342 299 -458 37 -64 41 -76 32 -98 -7 -13 -24 -29 -39 -35 -30 -11
-63 -37 -63 -50 0 -4 7 -15 17 -24 13 -13 28 -15 72 -11 82 9 311 10 431 2
112 -7 136 -1 126 31 -7 22 -50 46 -112 62 -44 12 -122 74 -157 126 -12 18
-44 66 -71 106 -27 41 -55 83 -62 94 -8 11 -65 97 -127 190 -275 411 -413 620
-431 649 -11 17 -26 35 -33 39 -18 11 -16 52 3 68 9 7 37 44 62 82 26 38 62
90 80 116 18 25 43 62 56 81 14 19 43 60 65 90 21 30 68 96 102 145 226 325
325 421 441 424 42 1 58 11 58 37 0 41 -27 46 -183 35 -84 -6 -164 -7 -196 -2
-29 5 -61 7 -70 5 -69 -13 -72 -15 -69 -37 2 -14 13 -24 36 -31 41 -12 82 -49
82 -76 0 -28 -77 -163 -159 -278 -36 -52 -72 -106 -80 -120 -7 -15 -23 -37
-34 -49 -11 -12 -25 -31 -31 -42 -6 -11 -40 -61 -76 -112 -36 -50 -84 -120
-107 -155 -24 -35 -46 -64 -51 -64 -8 0 -112 154 -191 285 -23 39 -70 108
-102 155 -89 127 -209 307 -209 314 0 4 -9 19 -20 34 -30 42 -17 70 46 98 44
19 51 26 47 44 -9 35 -36 42 -126 33 -84 -9 -229 -8 -397 2 -61 4 -101 2 -112
-5z M16993 3070 c-15 -6 -23 -18 -23 -34 0 -26 7 -30 71 -40 53 -9 78 -42 95
-125 22 -108 15 -1968 -8 -2021 -18 -42 -55 -69 -106 -77 -53 -8 -72 -21 -72
-47 0 -31 46 -49 92 -35 45 13 337 12 428 -2 113 -17 161 10 110 61 -12 12
-33 20 -54 20 -50 0 -98 37 -112 88 -9 31 -12 149 -9 449 l3 407 249 1 c237 1
252 2 338 27 194 57 296 106 370 176 141 135 205 282 205 473 0 178 -51 321
-161 446 -36 41 -150 121 -209 146 -166 71 -233 79 -735 82 -231 1 -427 5
-435 8 -8 3 -25 2 -37 -3z m927 -120 c91 -34 166 -79 216 -129 30 -30 54 -58
54 -63 0 -5 9 -21 20 -36 49 -67 95 -262 85 -359 -21 -188 -67 -311 -151 -398
-59 -61 -136 -113 -184 -122 -19 -3 -49 -12 -67 -19 -72 -30 -442 -24 -481 8
-10 9 -12 113 -10 560 3 536 3 550 23 564 17 13 57 15 240 11 148 -2 231 -8
255 -17z M23080 3055 c-10 -12 -10 -21 -2 -39 8 -19 24 -27 69 -36 71 -15 87
-28 108 -92 14 -45 16 -148 16 -1032 1 -610 -3 -990 -9 -1006 -19 -49 -57 -78
-108 -85 -59 -7 -78 -16 -82 -39 -8 -41 -3 -41 520 -41 425 0 519 3 608 17
228 37 343 89 466 213 109 109 149 191 165 342 11 94 10 119 -5 193 -9 47 -21
89 -26 94 -6 6 -10 17 -10 26 0 9 -19 45 -42 79 -91 137 -286 256 -452 276
-31 4 -56 12 -56 19 0 6 30 21 66 34 37 13 78 31 93 41 14 10 49 33 78 52 140
95 225 291 203 474 -19 162 -79 265 -215 371 -73 57 -148 87 -305 121 -61 13
-153 17 -490 19 -228 2 -451 6 -496 9 -66 5 -83 4 -94 -10z m927 -94 c213 -31
351 -156 397 -358 20 -89 20 -151 1 -245 -34 -163 -115 -272 -253 -340 -85
-43 -85 -43 -351 -43 l-266 0 -3 485 c-2 400 0 487 11 495 20 14 377 19 464 6z
m138 -1103 c22 -9 58 -21 80 -26 99 -27 229 -142 286 -253 31 -61 33 -71 37
-196 3 -104 1 -148 -14 -205 -24 -99 -57 -169 -103 -215 -20 -22 -40 -47 -44
-56 -3 -9 -15 -17 -25 -17 -11 0 -26 -7 -33 -17 -19 -22 -101 -57 -185 -79
-55 -14 -112 -18 -279 -18 -225 -1 -275 7 -313 47 -22 23 -22 24 -22 530 0
279 2 513 6 518 4 7 97 10 288 7 226 -3 289 -7 321 -20z M2737 2903 c-13 -12
-7 -43 8 -43 9 0 15 9 15 25 0 24 -10 32 -23 18z M1150 2890 c0 -12 17 -12 45
0 17 7 15 9 -12 9 -18 1 -33 -3 -33 -9z M10765 2320 c-4 -6 -3 -16 3 -22 13
-13 23 4 13 21 -7 10 -10 10 -16 1z M1172 868 c6 -18 28 -21 28 -4 0 9 -7 16
-16 16 -9 0 -14 -5 -12 -12z"/></g></g><g transform="translate(185,525) scale(0.25)"><g transform="translate(0.000000,240.000000) scale(0.100000,-0.100000)"><path fill="url(#bronzeDark)" d="M10611 2004 c-247 -53 -449 -208 -537 -411 -78 -182 -92 -321 -50
-485 30 -119 72 -199 151 -285 82 -90 183 -157 303 -201 96 -34 99 -35 262
-35 155 -1 170 1 245 27 140 48 240 131 292 243 13 29 29 55 34 58 27 17 -11
75 -49 75 -7 0 -24 -24 -38 -52 -14 -29 -34 -69 -44 -89 -20 -38 -93 -109
-112 -109 -6 0 -21 -9 -33 -20 -27 -25 -199 -70 -270 -70 -66 0 -188 31 -254
65 -98 49 -214 175 -227 246 -4 19 -13 45 -19 59 -22 44 -48 248 -42 330 11
134 42 245 100 345 70 123 152 191 266 223 105 29 328 18 391 -19 8 -5 29 -16
45 -23 66 -31 136 -126 166 -224 16 -54 31 -67 60 -52 20 11 21 17 15 73 -4
34 -12 77 -18 96 -5 18 -8 50 -4 70 7 47 -17 76 -77 91 -23 6 -58 17 -77 25
-121 50 -361 74 -479 49z M1045 1996 c-16 -8 -46 -22 -65 -30 -123 -54 -210
-188 -210 -322 0 -82 35 -179 82 -230 43 -47 150 -126 184 -137 35 -10 132
-53 146 -64 7 -6 24 -14 38 -18 41 -12 162 -85 198 -118 70 -66 90 -207 42
-300 -24 -46 -68 -97 -84 -97 -6 0 -24 -7 -41 -16 -47 -25 -247 -21 -292 6
-19 11 -40 20 -48 20 -19 0 -98 68 -114 99 -7 14 -21 35 -31 46 -10 11 -23 38
-29 59 -12 45 -46 86 -72 86 -20 0 -34 -33 -23 -52 12 -18 33 -147 33 -201 1
-42 4 -49 34 -67 17 -11 41 -20 53 -20 11 0 52 -11 90 -24 38 -13 116 -29 174
-36 138 -16 242 2 357 61 89 46 124 84 171 189 29 66 33 106 18 196 -10 62
-21 92 -46 129 -34 49 -128 145 -142 145 -7 0 -36 13 -193 85 -88 40 -160 73
-170 76 -20 7 -102 74 -119 97 -20 26 -46 119 -46 165 0 18 7 45 15 61 8 15
15 35 15 43 0 21 59 72 110 95 25 11 75 22 112 25 111 10 220 -45 280 -142 17
-27 37 -68 43 -90 26 -85 79 -67 64 22 -4 27 -8 76 -8 111 -1 35 -6 72 -11 82
-6 12 -42 29 -98 46 -75 24 -107 28 -237 31 -117 3 -157 0 -180 -11z M3387
1984 c-2 -3 -65 -5 -138 -5 -74 -1 -142 -5 -151 -10 -32 -17 -20 -38 27 -50
26 -6 50 -20 56 -30 6 -12 9 -224 7 -592 -2 -467 -6 -577 -17 -590 -7 -9 -30
-21 -51 -27 -46 -12 -68 -35 -54 -57 8 -13 62 -15 429 -13 231 1 429 1 440 1
11 0 42 0 69 -1 59 0 76 12 76 57 0 36 21 114 46 171 8 18 14 46 14 62 0 26
-4 30 -29 30 -25 0 -32 -8 -57 -56 -31 -62 -89 -123 -156 -162 -43 -26 -44
-26 -264 -27 -161 0 -225 3 -236 12 -12 11 -15 57 -16 292 0 204 3 282 11 289
14 11 179 15 260 6 70 -7 108 -36 125 -92 11 -37 46 -72 72 -72 7 0 8 40 4
123 -3 67 -2 148 3 179 11 65 3 88 -32 88 -18 0 -26 -8 -36 -37 -33 -102 -57
-113 -241 -113 -79 0 -149 4 -156 9 -18 11 -9 530 9 541 6 4 97 5 203 3 163
-4 198 -8 238 -25 29 -12 50 -29 54 -42 3 -11 15 -30 25 -41 10 -11 25 -36 33
-55 8 -19 26 -46 41 -60 22 -21 28 -22 35 -10 14 22 12 68 -5 124 -8 27 -15
68 -15 91 0 26 -7 51 -17 64 -17 20 -28 21 -310 25 -160 2 -293 2 -296 0z
M5420 1972 c-32 -26 -21 -52 23 -52 18 0 42 -6 53 -14 18 -14 19 -30 16 -607
-2 -345 -7 -598 -12 -605 -6 -6 -28 -16 -50 -23 -36 -11 -41 -15 -38 -39 3
-27 3 -27 471 -27 327 0 475 3 489 11 16 9 29 40 53 125 18 63 38 126 45 141
18 37 7 60 -27 56 -22 -2 -33 -13 -53 -56 -31 -66 -100 -136 -165 -170 -48
-25 -58 -26 -260 -30 -194 -4 -212 -3 -232 14 -23 19 -23 19 -23 584 0 311 0
573 0 583 0 26 37 57 69 57 37 0 59 24 41 45 -10 13 -36 15 -134 13 -67 -1
-148 2 -181 6 -52 6 -64 5 -85 -12z M7731 1973 c-32 -26 -22 -53 18 -53 61 0
60 13 63 -621 3 -556 2 -578 -16 -598 -12 -13 -31 -21 -52 -21 -42 0 -65 -33
-40 -58 14 -14 70 -17 481 -19 465 -2 465 -2 494 23 25 21 29 30 24 58 -3 20
-1 36 6 40 6 4 11 14 11 23 0 9 12 40 26 70 29 63 29 107 -1 111 -16 2 -31
-12 -62 -61 -43 -68 -146 -162 -191 -174 -15 -5 -124 -8 -243 -8 -172 0 -219
3 -233 14 -16 13 -17 41 -15 290 1 152 5 281 10 286 5 7 60 10 154 7 169 -4
207 -17 224 -78 18 -64 77 -122 83 -81 1 6 3 84 5 172 1 88 3 171 4 184 3 63
-72 23 -91 -49 -7 -25 -19 -41 -37 -50 -35 -16 -328 -25 -338 -10 -11 17 -11
540 0 541 6 1 100 1 210 0 152 -2 204 -6 219 -17 11 -8 28 -14 38 -14 18 0 72
-76 111 -157 43 -88 78 -23 53 97 -9 39 -13 84 -10 99 5 22 1 32 -18 45 -20
15 -64 16 -393 16 -203 -1 -393 2 -420 5 -42 6 -55 4 -74 -12z M12552 1974
c-5 -11 -13 -48 -17 -84 -4 -36 -13 -83 -21 -105 -19 -55 -17 -89 4 -108 10
-10 22 -17 25 -17 11 0 53 72 66 113 7 21 20 41 30 44 9 3 23 15 32 25 8 11
42 30 75 44 48 20 77 24 156 24 53 0 103 -3 112 -6 13 -5 15 -73 15 -592 0
-323 -3 -593 -8 -600 -4 -7 -30 -21 -57 -31 -43 -17 -49 -23 -49 -47 0 -32
-11 -31 210 -25 44 1 103 -1 131 -5 57 -7 94 6 94 34 0 27 -20 42 -56 42 -61
0 -61 2 -65 297 -2 147 -2 417 1 598 l5 330 114 3 c86 2 126 -1 164 -14 57
-19 129 -80 147 -124 7 -17 17 -30 22 -30 5 0 16 -16 24 -35 9 -23 21 -35 34
-35 30 0 34 39 11 98 -14 35 -21 76 -21 121 0 47 -4 72 -14 80 -11 9 -78 12
-243 10 -337 -3 -822 1 -870 7 -33 5 -43 3 -51 -12z M6277 863 c-12 -11 -8
-23 8 -23 8 0 15 7 15 15 0 16 -12 20 -23 8z"/></g></g><g transform="translate(300,602) scale(0.25)"><g transform="translate(0.000000,64.000000) scale(0.100000,-0.100000)"><path fill="url(#bronzeDark)" d="M963 303 c-7 -2 -13 -20 -13 -39 0 -27 5 -36 24 -44 15 -5 689 -9
1679 -9 1637 0 1655 0 1676 20 26 24 27 41 3 62 -17 16 -148 17 -1688 16 -918
0 -1675 -3 -1681 -6z"/></g></g><g transform="translate(160,642) scale(0.25)"><g transform="translate(0.000000,132.000000) scale(0.100000,-0.100000)"><path fill="url(#bronzeDark)" d="M653 923 c-30 -3 -53 -9 -56 -17 -3 -8 -7 -124 -8 -260 -2 -219 -1
-248 14 -263 16 -16 19 -16 44 4 26 19 28 25 28 94 0 91 6 103 51 95 47 -9
135 18 168 52 29 31 46 79 46 128 0 39 -51 117 -93 142 -34 21 -110 30 -194
25z m180 -125 c31 -37 33 -48 12 -88 -14 -28 -24 -32 -105 -45 -52 -8 -61 3
-65 81 -5 89 3 98 75 91 46 -5 59 -11 83 -39z M1495 923 c-11 -3 -24 -10 -30
-17 -6 -8 -10 -109 -9 -259 0 -257 3 -277 45 -277 27 0 31 13 38 118 6 97 6
97 46 97 39 0 39 0 95 -95 60 -102 96 -134 124 -111 23 19 21 78 -4 91 -10 5
-35 35 -55 65 -37 54 -37 54 13 104 66 66 75 111 35 189 -37 74 -87 98 -198
99 -44 0 -89 -2 -100 -4z m207 -113 c28 -34 24 -94 -8 -119 -20 -16 -37 -19
-87 -17 -62 3 -62 3 -67 70 -3 37 -2 74 3 81 5 10 25 13 74 10 55 -2 70 -7 85
-25z M1626 761 c-7 -10 22 -37 30 -28 9 8 -3 37 -15 37 -5 0 -12 -4 -15 -9z
M2925 900 c-5 -22 -1 -39 14 -64 12 -18 21 -45 21 -58 0 -14 6 -31 14 -37 8
-7 18 -27 22 -44 3 -18 10 -36 13 -42 4 -5 16 -32 26 -60 17 -49 68 -165 84
-195 10 -18 49 -26 63 -12 9 9 59 125 130 302 16 41 38 96 49 122 23 56 25
106 5 114 -8 3 -27 0 -42 -8 -28 -13 -41 -43 -134 -302 -16 -43 -31 -80 -34
-83 -12 -12 -24 10 -30 53 -3 26 -10 52 -15 58 -9 11 -43 97 -76 191 -27 76
-41 95 -74 95 -25 0 -31 -5 -36 -30z M4752 919 c-27 -10 -33 -33 -16 -58 13
-17 25 -21 74 -21 32 0 62 -5 65 -10 4 -6 8 -104 10 -217 3 -183 6 -209 21
-220 21 -15 34 -16 53 -4 11 7 14 50 14 220 0 163 3 214 13 222 9 7 32 8 63 4
42 -6 52 -4 70 14 29 29 27 56 -6 69 -31 12 -331 12 -361 1z M5673 917 c-38
-17 -44 -50 -44 -276 0 -119 3 -224 6 -233 11 -27 41 -32 185 -29 116 2 138 5
154 21 11 10 16 25 13 34 -11 27 -57 37 -155 35 -108 -3 -112 -1 -112 77 0 77
10 85 98 74 88 -12 115 -2 110 38 -5 46 -65 60 -173 41 -17 -4 -20 4 -27 61
-5 46 -4 68 5 76 8 8 42 9 107 4 52 -3 101 -4 108 -2 17 6 27 52 15 71 -8 13
-32 16 -140 17 -71 0 -139 -4 -150 -9z M7249 922 c-49 -2 -58 -6 -63 -25 -8
-29 -8 -481 0 -501 8 -20 47 -21 63 -2 6 7 15 53 19 102 7 89 7 89 42 89 32 0
38 -6 97 -90 65 -94 95 -125 120 -125 13 0 15 9 9 48 -3 26 -11 49 -16 50 -10
4 -80 104 -80 115 0 3 20 27 45 53 44 45 45 47 45 115 0 62 -3 71 -31 104 -18
20 -44 42 -58 49 -30 15 -110 23 -192 18z m184 -120 c35 -33 34 -62 -2 -101
-30 -32 -63 -38 -135 -22 -29 6 -30 7 -33 76 -1 46 2 72 10 77 6 4 39 5 72 1
45 -4 67 -12 88 -31z M8080 915 c-16 -19 -18 -511 -2 -527 5 -5 75 -10 156
-10 151 -1 176 5 176 42 0 34 -28 44 -133 47 -56 1 -108 5 -114 8 -9 3 -13 25
-13 63 0 79 10 87 102 79 84 -7 108 2 108 42 0 36 -12 41 -110 41 -93 0 -102
7 -98 82 3 60 -14 54 160 57 66 1 79 4 88 21 9 17 6 25 -14 45 -24 24 -30 25
-159 25 -109 0 -137 -3 -147 -15z M9870 915 c-19 -23 -15 -480 4 -511 14 -21
23 -23 143 -26 70 -2 134 -2 141 0 22 7 26 51 6 74 -17 18 -27 20 -98 15 -134
-9 -126 -22 -124 218 1 185 0 207 -17 225 -22 24 -38 25 -55 5z M11372 914
c-22 -15 -22 -20 -22 -253 0 -214 2 -241 18 -261 16 -20 26 -22 161 -22 149
-1 160 2 161 44 0 35 -39 47 -137 43 -115 -5 -124 2 -115 90 7 60 7 60 99 60
101 0 118 8 108 48 -9 33 -31 40 -125 41 -75 1 -75 1 -75 66 0 65 0 65 107 65
88 0 111 4 125 17 13 14 14 22 6 41 -9 20 -21 26 -65 31 -100 11 -223 6 -246
-10z M12285 907 c-51 -29 -85 -80 -85 -126 0 -55 51 -107 156 -161 48 -25 94
-55 101 -67 13 -19 11 -24 -18 -58 -32 -36 -35 -37 -82 -32 -31 4 -59 15 -78
32 -18 14 -43 25 -60 25 -25 0 -29 -4 -29 -29 0 -61 82 -121 167 -121 89 1
167 55 193 134 22 67 -44 147 -152 187 -51 18 -92 49 -109 82 -8 14 -3 24 23
47 41 38 66 38 138 -2 64 -36 88 -31 76 15 -20 82 -154 123 -241 74z M13030
915 c-6 -8 -10 -26 -8 -41 4 -32 47 -49 89 -35 15 5 32 5 43 -1 15 -8 17 -31
16 -214 -1 -172 1 -209 15 -230 8 -13 24 -24 35 -24 37 0 43 34 42 246 -2 226
0 231 64 221 43 -7 78 7 92 38 20 44 -4 50 -199 52 -140 1 -180 -1 -189 -12z
M14747 909 c-22 -17 -22 -17 2 -43 21 -22 33 -26 82 -26 32 0 61 -5 65 -11 3
-6 5 -103 5 -216 -2 -144 1 -209 10 -219 15 -18 53 -18 68 -1 7 9 12 90 13
228 3 214 3 214 60 216 70 2 98 16 98 49 0 37 -31 43 -216 42 -142 -1 -169 -4
-187 -19z M15665 917 c-17 -13 -18 -32 -16 -262 0 -158 5 -253 11 -260 14 -13
289 -25 312 -14 29 16 33 51 8 71 -20 16 -39 19 -128 17 -68 -1 -107 2 -111
10 -4 6 -7 39 -7 73 1 63 1 63 92 61 80 -2 93 0 109 17 15 16 16 25 7 44 -12
28 -62 38 -138 30 -28 -4 -54 -2 -57 3 -9 15 -17 100 -11 117 5 12 25 14 114
13 113 -2 140 7 140 44 0 39 -37 49 -175 49 -94 0 -136 -4 -150 -13z M2340
905 c-9 -11 -12 -77 -11 -258 1 -214 3 -243 18 -254 23 -18 60 -16 67 3 8 21
8 453 0 493 -5 26 -11 31 -34 31 -15 0 -33 -7 -40 -15z M4027 906 c-19 -19
-57 -99 -88 -181 -27 -74 -46 -118 -93 -218 -43 -92 -45 -114 -11 -123 40 -10
54 2 86 71 16 36 35 65 42 66 61 5 175 3 188 -3 9 -4 26 -34 38 -67 22 -60 47
-80 85 -65 25 10 19 43 -29 151 -24 56 -54 130 -65 165 -12 34 -31 79 -42 98
-11 19 -26 53 -32 75 -9 32 -17 41 -38 43 -14 2 -32 -4 -41 -12z m47 -162 c4
-16 17 -48 27 -72 26 -58 25 -66 -11 -58 -17 3 -40 2 -53 -3 -26 -10 -47 -4
-47 13 0 6 9 29 20 51 11 22 20 47 20 56 0 53 29 62 44 13z M9074 893 c-3 -16
-21 -59 -39 -98 -46 -96 -70 -154 -79 -190 -4 -16 -23 -62 -42 -102 -37 -78
-41 -104 -21 -122 19 -15 72 34 87 80 18 59 33 66 143 67 97 0 98 0 108 -26 5
-15 16 -40 24 -57 7 -16 16 -38 19 -47 6 -21 46 -24 64 -6 18 18 15 44 -13 96
-14 26 -25 54 -25 62 0 9 -7 26 -16 38 -8 12 -24 47 -35 78 -10 32 -32 83 -48
116 -16 32 -33 73 -36 91 -9 37 -20 47 -57 47 -22 0 -29 -6 -34 -27z m78 -189
c15 -38 28 -74 28 -80 0 -6 -26 -10 -65 -10 -59 0 -65 2 -65 20 0 12 9 32 20
46 11 14 20 39 20 56 0 33 8 46 24 41 5 -2 22 -34 38 -73z M14038 910 c-9 -6
-20 -24 -23 -41 -4 -17 -16 -46 -26 -64 -11 -18 -30 -64 -43 -101 -40 -116
-55 -153 -86 -214 -33 -66 -38 -101 -15 -120 22 -18 65 23 101 95 29 60 29 60
119 60 50 0 96 -2 102 -4 7 -1 25 -30 40 -63 21 -47 33 -62 61 -74 19 -7 36
-14 38 -14 14 0 -1 77 -25 126 -15 32 -38 86 -50 119 -25 67 -53 134 -88 212
-13 28 -23 56 -23 62 0 12 -33 31 -52 31 -7 0 -21 -5 -30 -10z m56 -166 c11
-38 23 -65 38 -85 23 -33 3 -49 -62 -49 -59 0 -60 0 -60 29 0 16 7 34 15 41 8
7 17 28 21 49 4 20 9 40 11 44 9 15 28 0 37 -29z"/></g></g></svg>